<svg width="302" height="107" xmlns="http://www.w3.org/2000/svg" xmlns:xlink="http://www.w3.org/1999/xlink" xml:space="preserve" overflow="hidden"><defs><clipPath id="clip0"><rect x="2049" y="1184" width="302" height="107"/></clipPath><clipPath id="clip1"><rect x="2045" y="1284" width="293" height="11"/></clipPath><clipPath id="clip2"><rect x="2326" y="1183" width="12" height="112"/></clipPath><clipPath id="clip3"><rect x="2045" y="1284" width="293" height="11"/></clipPath><clipPath id="clip4"><rect x="2055" y="1280" width="279" height="12"/></clipPath><clipPath id="clip5"><rect x="2045" y="1284" width="293" height="11"/></clipPath><clipPath id="clip6"><rect x="2326" y="1183" width="12" height="112"/></clipPath><clipPath id="clip7"><rect x="2045" y="1284" width="293" height="11"/></clipPath><clipPath id="clip8"><rect x="2323" y="1183" width="8" height="112"/></clipPath><clipPath id="clip9"><rect x="2045" y="1284" width="293" height="11"/></clipPath><clipPath id="clip10"><rect x="2055" y="1280" width="279" height="12"/></clipPath><clipPath id="clip11"><rect x="2045" y="1284" width="293" height="11"/></clipPath><clipPath id="clip12"><rect x="2182" y="1222" width="113" height="27"/></clipPath><clipPath id="clip13"><rect x="2182" y="1222" width="113" height="27"/></clipPath><clipPath id="clip14"><rect x="2047" y="1203" width="302" height="109"/></clipPath><clipPath id="clip15"><rect x="2047" y="1203" width="302" height="109"/></clipPath></defs><g clip-path="url(#clip0)" transform="translate(-2049 -1184)"><path d="M0 0 284.842 0 284.842 106.387 0 106.387 0 0Z" fill="#FFCC66" transform="matrix(1 0 0 1.00342 2049 1184)"/><path d="M1.25262 0 126.322 0 126.322 106.387 1.25262 106.387 1.25262 0Z" fill="#FFFFFF" transform="matrix(1 0 0 1.00342 2049 1184)"/><path d="M0 102.956 284.842 102.956 284.842 106.387 0 106.387 0 102.956Z" fill="#504D4C" transform="matrix(1 0 0 1.00342 2049 1184)"/><g clip-path="url(#clip1)"><path d="M0 0 284.842 0 284.842 106.387 0 106.387 0 0Z" fill="#4E4B3F" transform="matrix(1 0 0 1.00342 2049 1184)"/><path d="M1.25262 0 126.322 0 126.322 106.387 1.25262 106.387 1.25262 0Z" fill="#4F4F4F" transform="matrix(1 0 0 1.00342 2049 1184)"/></g><path d="M281.41 0 284.842 0 284.842 106.387 281.41 106.387 281.41 0Z" fill="#504D4C" transform="matrix(1 0 0 1.00342 2049 1184)"/><g clip-path="url(#clip2)"><path d="M0 0 284.842 0 284.842 106.387 0 106.387 0 0Z" fill="#4E4B3F" transform="matrix(1 0 0 1.00342 2049 1184)"/><path d="M0 102.956 284.842 102.956 284.842 106.387 0 106.387 0 102.956Z" fill="#191919" transform="matrix(1 0 0 1.00342 2049 1184)"/><g clip-path="url(#clip3)"><path d="M0 0 284.842 0 284.842 106.387 0 106.387 0 0Z" fill="#191917" transform="matrix(1 0 0 1.00342 2049 1184)"/><path d="M1.25606 0 126.322 0 126.322 106.387 1.25606 106.387 1.25606 0Z" fill="#191919" transform="matrix(1 0 0 1.00342 2049 1184)"/></g></g><path d="M0 0 3.43183 0 3.43183 106.387 0 106.387 0 0Z" fill="#CCCCCC" transform="matrix(1 0 0 1.00342 2049 1184)"/><path d="M7.41277 99.5402 281.959 99.5402 281.959 102.972 7.41277 102.972 7.41277 99.5402Z" fill="#9E9C9C" transform="matrix(1 0 0 1.00342 2049 1184)"/><g clip-path="url(#clip4)"><path d="M0 0 284.842 0 284.842 106.387 0 106.387 0 0Z" fill="#B39F67" transform="matrix(1 0 0 1.00342 2049 1184)"/><path d="M1.25262 0 126.322 0 126.322 106.387 1.25262 106.387 1.25262 0Z" fill="#B5B5B5" transform="matrix(1 0 0 1.00342 2049 1184)"/><path d="M0 102.956 284.842 102.956 284.842 106.387 0 106.387 0 102.956Z" fill="#383838" transform="matrix(1 0 0 1.00342 2049 1184)"/><g clip-path="url(#clip5)"><path d="M0 0 284.842 0 284.842 106.387 0 106.387 0 0Z" fill="#383530" transform="matrix(1 0 0 1.00342 2049 1184)"/><path d="M1.25606 0 126.322 0 126.322 106.387 1.25606 106.387 1.25606 0Z" fill="#383838" transform="matrix(1 0 0 1.00342 2049 1184)"/></g><path d="M281.41 0 284.842 0 284.842 106.387 281.41 106.387 281.41 0Z" fill="#383838" transform="matrix(1 0 0 1.00342 2049 1184)"/><g clip-path="url(#clip6)"><path d="M0 0 284.842 0 284.842 106.387 0 106.387 0 0Z" fill="#383530" transform="matrix(1 0 0 1.00342 2049 1184)"/><path d="M0 102.956 284.842 102.956 284.842 106.387 0 106.387 0 102.956Z" fill="#131313" transform="matrix(1 0 0 1.00342 2049 1184)"/><g clip-path="url(#clip7)"><path d="M0 0 284.842 0 284.842 106.387 0 106.387 0 0Z" fill="#131313" transform="matrix(1 0 0 1.00342 2049 1184)"/><path d="M1.25606 0 126.322 0 126.322 106.387 1.25606 106.387 1.25606 0Z" fill="#131313" transform="matrix(1 0 0 1.00342 2049 1184)"/></g></g></g><path d="M277.313 3.43183 280.744 3.43183 280.744 106.387 277.313 106.387 277.313 3.43183Z" fill="#9E9C9C" transform="matrix(1 0 0 1.00342 2049 1184)"/><g clip-path="url(#clip8)"><path d="M0 0 284.842 0 284.842 106.387 0 106.387 0 0Z" fill="#B39F67" transform="matrix(1 0 0 1.00342 2049 1184)"/><path d="M0 102.956 284.842 102.956 284.842 106.387 0 106.387 0 102.956Z" fill="#383838" transform="matrix(1 0 0 1.00342 2049 1184)"/><g clip-path="url(#clip9)"><path d="M0 0 284.842 0 284.842 106.387 0 106.387 0 0Z" fill="#383530" transform="matrix(1 0 0 1.00342 2049 1184)"/><path d="M1.25606 0 126.322 0 126.322 106.387 1.25606 106.387 1.25606 0Z" fill="#383838" transform="matrix(1 0 0 1.00342 2049 1184)"/></g><path d="M7.41277 99.5402 281.959 99.5402 281.959 102.972 7.41277 102.972 7.41277 99.5402Z" fill="#818181" transform="matrix(1 0 0 1.00342 2049 1184)"/><g clip-path="url(#clip10)"><path d="M0 0 284.842 0 284.842 106.387 0 106.387 0 0Z" fill="#807659" transform="matrix(1 0 0 1.00342 2049 1184)"/><path d="M1.25262 0 126.322 0 126.322 106.387 1.25262 106.387 1.25262 0Z" fill="#818181" transform="matrix(1 0 0 1.00342 2049 1184)"/><path d="M0 102.956 284.842 102.956 284.842 106.387 0 106.387 0 102.956Z" fill="#272727" transform="matrix(1 0 0 1.00342 2049 1184)"/><g clip-path="url(#clip11)"><path d="M0 0 284.842 0 284.842 106.387 0 106.387 0 0Z" fill="#272623" transform="matrix(1 0 0 1.00342 2049 1184)"/><path d="M1.25606 0 126.322 0 126.322 106.387 1.25606 106.387 1.25606 0Z" fill="#272727" transform="matrix(1 0 0 1.00342 2049 1184)"/></g><path d="M281.41 0 284.842 0 284.842 106.387 281.41 106.387 281.41 0Z" fill="#272727" transform="matrix(1 0 0 1.00342 2049 1184)"/></g></g><path d="M0 0 284.842 0 284.842 3.43183 0 3.43183 0 0Z" fill="#CCCCCC" transform="matrix(1 0 0 1.00342 2049 1184)"/><path d="M234.302 64.6695 254.955 83.5583 295.141 43.3682" stroke="#990000" stroke-width="16.513" stroke-miterlimit="3.8637" fill="none" fill-rule="evenodd" transform="matrix(1 0 0 1.00342 2049 1184)"/><path d="M113.515 24.1498 114.661 31.1301 110.594 38.9067C110.594 38.9067 109.032 35.6086 106.442 33.783 104.259 32.2455 102.835 31.9091 100.611 32.369 97.7525 32.9593 94.5125 36.374 93.0988 40.5881 91.4067 45.6296 91.3898 48.0663 91.3314 50.3071 91.2354 53.9003 91.8016 56.0213 91.8016 56.0213 91.8016 56.0213 89.3342 51.457 89.3579 44.7682 89.3751 39.9947 90.1233 35.6671 92.3334 31.3979 94.2759 27.6434 97.1619 25.3887 99.7253 25.1245 102.375 24.8499 104.472 26.1266 106.088 27.5096 107.788 28.9612 109.507 32.1322 109.507 32.1322L113.515 24.1498Z" transform="matrix(1 0 0 1.00342 2049 1184)"/><path d="M114.012 63.6502C114.012 63.6502 112.218 66.8624 111.096 68.098 109.973 69.3332 107.972 71.5161 105.501 72.6038 103.027 73.6918 101.73 73.901 99.2863 73.6643 96.843 73.4277 94.5744 72.017 93.7781 71.4267 92.9856 70.8399 90.9506 69.1 89.8006 67.4802 88.651 65.8603 86.8561 62.6207 86.8561 62.6207 86.8561 62.6207 87.8585 65.8672 88.4828 67.2469 88.8433 68.0395 89.9516 70.4659 91.5236 72.5763 92.989 74.5463 95.8376 77.9369 100.169 78.7023 104.499 79.4677 107.471 77.5252 108.209 77.0515 108.944 76.5813 110.499 75.2807 111.479 74.2305 112.506 73.1325 113.477 71.7356 114.012 70.8949 114.403 70.2805 115.045 69.0381 115.045 69.0381L114.012 63.6502Z" transform="matrix(1 0 0 1.00342 2049 1184)"/><path d="M39.25 24.4587 49.0374 57.7406 58.8252 24.4587 65.9119 24.4587 49.7103 79.1381 49.034 79.1381 38.9102 45.2488 28.7828 79.1381 28.1101 79.1381 11.9084 24.4587 18.9952 24.4587 28.7862 57.7406 35.4029 35.3272 32.1631 24.4587 39.25 24.4587Z" fill="#005A9C" transform="matrix(1 0 0 1.00342 2049 1184)"/><path d="M86.0429 61.5877C86.0429 66.5397 84.7251 70.7026 82.093 74.0761 79.4608 77.4495 76.0495 79.1381 71.866 79.1381 68.7157 79.1381 65.9701 78.1361 63.6296 76.1352 61.2891 74.1345 59.5561 71.4198 58.4303 68.0016L63.966 65.7059C64.7757 67.7753 65.8466 69.4089 67.1747 70.5997 68.5028 71.7941 70.0676 72.3878 71.866 72.3878 73.7568 72.3878 75.3529 71.3307 76.6601 69.2166 77.9679 67.1028 78.6198 64.5597 78.6198 61.5877 78.6198 58.3033 77.9232 55.7606 76.5266 53.9588 74.903 51.8447 72.3603 50.7842 68.8974 50.7842L66.1967 50.7842 66.1967 47.5445 75.6477 31.2091 64.2371 31.2091 61.0628 36.611 59.0377 36.611 59.0377 24.4587 85.367 24.4587 85.367 27.767 75.3767 44.9811C78.8877 46.1067 81.5436 48.1554 83.342 51.1275 85.1403 54.0995 86.0429 57.5827 86.0429 61.5877Z" fill="#005A9C" transform="matrix(1 0 0 1.00342 2049 1184)"/><path d="M136.25 19.4001 142.702 19.4001 142.702 28.9338 152.218 28.9338 152.218 19.4001 158.671 19.4001 158.671 44.418 152.218 44.418 152.218 33.8105 142.702 33.8105 142.702 44.418 136.25 44.418Z" fill-rule="evenodd" transform="matrix(1 0 0 1.00342 2049 1184)"/><path d="M164.048 19.4001 187.107 19.4001 187.107 24.2768 178.809 24.2768 178.809 44.418 172.357 44.418 172.357 24.2768 164.048 24.2768Z" fill-rule="evenodd" transform="matrix(1 0 0 1.00342 2049 1184)"/><path d="M192.498 19.4001 200.707 19.4001 206.407 32.7878 212.135 19.4001 220.33 19.4001 220.33 44.418 214.232 44.418 214.232 26.1197 208.466 39.6102 204.379 39.6102 198.614 26.1197 198.614 44.418 192.498 44.418Z" fill-rule="evenodd" transform="matrix(1 0 0 1.00342 2049 1184)"/><path d="M228.707 19.4001 235.159 19.4001 235.159 39.5417 246.488 39.5417 246.488 44.418 228.707 44.418Z" fill-rule="evenodd" transform="matrix(1 0 0 1.00342 2049 1184)"/><path d="M143.234 78.3556 154.244 78.3556 154.244 83.0984 136.062 83.0984 136.062 78.3556 145.194 70.2943C146.011 69.5564 146.615 68.8358 147.003 68.132 147.394 67.4286 147.59 66.6976 147.59 65.9357 147.59 64.762 147.195 63.8184 146.399 63.1047 145.616 62.3909 144.573 62.0304 143.265 62.0304 142.259 62.0304 141.161 62.2468 139.964 62.6826 138.77 63.1081 137.489 63.7428 136.127 64.5941L136.127 59.0962C137.579 58.6157 139.017 58.2521 140.434 58.0082 141.855 57.7509 143.245 57.624 144.607 57.624 147.603 57.624 149.926 58.2827 151.578 59.6005 153.242 60.9186 154.076 62.7545 154.076 65.1122 154.076 66.4747 153.723 67.7478 153.019 68.9318 152.315 70.1054 150.836 71.6805 148.578 73.6574L143.234 78.3556Z" fill-rule="evenodd" transform="matrix(1 0 0 1.00342 2049 1184)"/><path d="M162.789 76.6123 168.822 76.6123 168.822 83.0984 162.789 83.0984Z" fill-rule="evenodd" transform="matrix(1 0 0 1.00342 2049 1184)"/><path d="M190.168 70.5653C190.168 67.4389 189.873 65.2357 189.279 63.9626 188.699 62.6757 187.714 62.0338 186.332 62.0338 184.945 62.0338 183.956 62.6757 183.367 63.9626 182.772 65.2357 182.477 67.4354 182.477 70.5653 182.477 73.7259 182.772 75.9566 183.367 77.2507 183.956 78.5479 184.945 79.1928 186.332 79.1928 187.704 79.1928 188.689 78.5444 189.279 77.2507 189.873 75.9535 190.168 73.7259 190.168 70.5653ZM196.62 70.6135C196.62 74.7589 195.728 77.9576 193.94 80.2158 192.152 82.46 189.616 83.5824 186.332 83.5824 183.037 83.5824 180.494 82.46 178.706 80.2158 176.918 77.961 176.026 74.7589 176.026 70.6135 176.026 66.4575 176.918 63.2557 178.706 61.0112 180.494 58.7564 183.034 57.6274 186.332 57.6274 189.616 57.6274 192.152 58.7564 193.94 61.0112 195.728 63.2591 196.62 66.4575 196.62 70.6135Z" fill-rule="evenodd" transform="matrix(1 0 0 1.00342 2049 1184)"/><path d="M1696.38 850.184 1723.29 850.184 1723.29 880.084 1696.38 880.084Z" fill="#FFCC66" transform="matrix(1 0 0 1.00098 485.179 389.854)"/><text font-family="Tahoma,Tahoma_MSFontService,sans-serif" font-weight="700" font-size="35" transform="matrix(0.996699 0 0 0.99767 2183.18 1270)">5</text><rect x="2182" y="1201" width="77" height="77" fill="#FFCC66"/><rect x="2228" y="1195" width="78" height="35.0001" fill="#FFCC66"/><g clip-path="url(#clip12)"><g clip-path="url(#clip13)"><g clip-path="url(#clip14)"><g clip-path="url(#clip15)"><path d="M0 0 284.213 0 284.213 106.152 0 106.152 0 0Z" fill="#FFCC66" transform="matrix(1 0 0 1.01499 2047.59 1203.71)"/><path d="M1.24985 0 126.043 0 126.043 106.152 1.24985 106.152 1.24985 0Z" fill="#FFFFFF" transform="matrix(1 0 0 1.01499 2047.59 1203.71)"/><path d="M0 102.728 284.213 102.728 284.213 106.152 0 106.152 0 102.728Z" fill="#504D4C" transform="matrix(1 0 0 1.01499 2047.59 1203.71)"/><path d="M280.788 0 284.213 0 284.213 106.152 280.788 106.152 280.788 0Z" fill="#504D4C" transform="matrix(1 0 0 1.01499 2047.59 1203.71)"/><path d="M0 0 3.42425 0 3.42425 106.152 0 106.152 0 0Z" fill="#CCCCCC" transform="matrix(1 0 0 1.01499 2047.59 1203.71)"/><path d="M7.39639 99.3203 281.336 99.3203 281.336 102.745 7.39639 102.745 7.39639 99.3203Z" fill="#9E9C9C" transform="matrix(1 0 0 1.01499 2047.59 1203.71)"/><path d="M276.7 3.42425 280.124 3.42425 280.124 106.152 276.7 106.152 276.7 3.42425Z" fill="#9E9C9C" transform="matrix(1 0 0 1.01499 2047.59 1203.71)"/><path d="M0 0 284.213 0 284.213 3.42425 0 3.42425 0 0Z" fill="#CCCCCC" transform="matrix(1 0 0 1.01499 2047.59 1203.71)"/><path d="M233.784 64.5266 254.392 83.3737 294.489 43.2724" stroke="#990000" stroke-width="16.4765" stroke-miterlimit="3.8637" fill="none" fill-rule="evenodd" transform="matrix(1 0 0 1.01499 2047.59 1203.71)"/><path d="M113.264 24.0965 114.407 31.0614 110.35 38.8208C110.35 38.8208 108.792 35.5299 106.207 33.7083 104.029 32.1743 102.608 31.8387 100.389 32.2975 97.5366 32.8865 94.3037 36.2936 92.8931 40.4985 91.2048 45.5288 91.1879 47.9602 91.1296 50.1959 91.0338 53.7813 91.5988 55.8976 91.5988 55.8976 91.5988 55.8976 89.1368 51.3433 89.1605 44.6693 89.1777 39.9064 89.9242 35.5883 92.1294 31.3285 94.0676 27.5823 96.9473 25.3326 99.505 25.069 102.149 24.795 104.241 26.0689 105.854 27.4488 107.549 28.8972 109.265 32.0612 109.265 32.0612L113.264 24.0965Z" transform="matrix(1 0 0 1.01499 2047.59 1203.71)"/><path d="M113.76 63.5096C113.76 63.5096 111.97 66.7146 110.85 67.9475 109.73 69.18 107.733 71.3581 105.268 72.4434 102.8 73.529 101.505 73.7377 99.067 73.5016 96.6291 73.2654 94.3655 71.8579 93.571 71.2689 92.7802 70.6834 90.7496 68.9473 89.6022 67.3311 88.4552 65.7148 86.6642 62.4823 86.6642 62.4823 86.6642 62.4823 87.6644 65.7217 88.2874 67.0984 88.647 67.8892 89.7529 70.3103 91.3215 72.416 92.7836 74.3816 95.6258 77.7648 99.9474 78.5284 104.269 79.2921 107.234 77.3539 107.97 76.8813 108.703 76.4121 110.254 75.1144 111.233 74.0665 112.257 72.9709 113.226 71.5771 113.76 70.7383 114.151 70.1253 114.791 68.8855 114.791 68.8855L113.76 63.5096Z" transform="matrix(1 0 0 1.01499 2047.59 1203.71)"/><path d="M39.1633 24.4047 48.9291 57.613 58.6952 24.4047 65.7663 24.4047 49.6004 78.9633 48.9257 78.9633 38.8242 45.1488 28.7192 78.9633 28.048 78.9633 11.8821 24.4047 18.9532 24.4047 28.7226 57.613 35.3247 35.2492 32.0921 24.4047 39.1633 24.4047Z" fill="#005A9C" transform="matrix(1 0 0 1.01499 2047.59 1203.71)"/><path d="M85.8529 61.4516C85.8529 66.3927 84.538 70.5464 81.9116 73.9124 79.2852 77.2784 75.8815 78.9633 71.7072 78.9633 68.5639 78.9633 65.8243 77.9635 63.489 75.967 61.1537 73.9708 59.4246 71.262 58.3012 67.8514L63.8247 65.5607C64.6326 67.6256 65.7011 69.2555 67.0263 70.4438 68.3515 71.6355 69.9128 72.2279 71.7072 72.2279 73.5939 72.2279 75.1865 71.1731 76.4907 69.0637 77.7957 66.9546 78.4461 64.4171 78.4461 61.4516 78.4461 58.1745 77.751 55.6374 76.3576 53.8396 74.7375 51.7301 72.2004 50.672 68.7452 50.672L66.0505 50.672 66.0505 47.4395 75.4806 31.1401 64.0952 31.1401 60.9279 36.5301 58.9073 36.5301 58.9073 24.4047 85.1784 24.4047 85.1784 27.7056 75.2101 44.8818C78.7134 46.0048 81.3635 48.0491 83.1579 51.0145 84.9522 53.98 85.8529 57.4555 85.8529 61.4516Z" fill="#005A9C" transform="matrix(1 0 0 1.01499 2047.59 1203.71)"/><path d="M135.949 19.3573 142.387 19.3573 142.387 28.8699 151.882 28.8699 151.882 19.3573 158.321 19.3573 158.321 44.3199 151.882 44.3199 151.882 33.7358 142.387 33.7358 142.387 44.3199 135.949 44.3199Z" fill-rule="evenodd" transform="matrix(1 0 0 1.01499 2047.59 1203.71)"/><path d="M163.686 19.3573 186.694 19.3573 186.694 24.2232 178.414 24.2232 178.414 44.3199 171.976 44.3199 171.976 24.2232 163.686 24.2232Z" fill-rule="evenodd" transform="matrix(1 0 0 1.01499 2047.59 1203.71)"/><path d="M192.073 19.3573 200.264 19.3573 205.951 32.7153 211.667 19.3573 219.844 19.3573 219.844 44.3199 213.759 44.3199 213.759 26.062 208.006 39.5227 203.927 39.5227 198.175 26.062 198.175 44.3199 192.073 44.3199Z" fill-rule="evenodd" transform="matrix(1 0 0 1.01499 2047.59 1203.71)"/><path d="M228.202 19.3573 234.64 19.3573 234.64 39.4544 245.943 39.4544 245.943 44.3199 228.202 44.3199Z" fill-rule="evenodd" transform="matrix(1 0 0 1.01499 2047.59 1203.71)"/><path d="M142.918 78.1825 153.903 78.1825 153.903 82.9149 135.762 82.9149 135.762 78.1825 144.873 70.139C145.689 69.4028 146.291 68.6837 146.678 67.9815 147.068 67.2796 147.264 66.5502 147.264 65.79 147.264 64.6189 146.87 63.6775 146.075 62.9653 145.295 62.2531 144.254 61.8934 142.949 61.8934 141.945 61.8934 140.849 62.1093 139.655 62.5441 138.463 62.9687 137.186 63.6019 135.826 64.4514L135.826 58.9657C137.275 58.4862 138.71 58.1234 140.124 57.88 141.541 57.6233 142.929 57.4967 144.287 57.4967 147.277 57.4967 149.595 58.1539 151.243 59.4688 152.904 60.7841 153.735 62.6159 153.735 64.9683 153.735 66.3278 153.383 67.5981 152.681 68.7795 151.979 69.9506 150.503 71.5222 148.249 73.4947L142.918 78.1825Z" fill-rule="evenodd" transform="matrix(1 0 0 1.01499 2047.59 1203.71)"/><path d="M162.429 76.443 168.45 76.443 168.45 82.9149 162.429 82.9149Z" fill-rule="evenodd" transform="matrix(1 0 0 1.01499 2047.59 1203.71)"/><path d="M189.748 70.4095C189.748 67.2899 189.454 65.0915 188.861 63.8213 188.282 62.5373 187.299 61.8968 185.92 61.8968 184.537 61.8968 183.55 62.5373 182.961 63.8213 182.369 65.0915 182.074 67.2865 182.074 70.4095 182.074 73.563 182.369 75.7888 182.961 77.08 183.55 78.3743 184.537 79.0179 185.92 79.0179 187.289 79.0179 188.272 78.3709 188.861 77.08 189.454 75.7857 189.748 73.563 189.748 70.4095ZM196.185 70.4575C196.185 74.5937 195.295 77.7854 193.511 80.0386 191.727 82.2778 189.197 83.3978 185.92 83.3978 182.632 83.3978 180.095 82.2778 178.311 80.0386 176.527 77.7888 175.637 74.5937 175.637 70.4575 175.637 66.3107 176.527 63.1159 178.311 60.8764 180.095 58.6266 182.629 57.5001 185.92 57.5001 189.197 57.5001 191.727 58.6266 193.511 60.8764 195.295 63.1194 196.185 66.3107 196.185 70.4575Z" fill-rule="evenodd" transform="matrix(1 0 0 1.01499 2047.59 1203.71)"/><path d="M1692.63 848.306 1719.48 848.306 1719.48 878.14 1692.63 878.14Z" fill="#FFCC66" transform="matrix(1 0 0 1.01252 487.228 402.181)"/><text font-family="Tahoma,Tahoma_MSFontService,sans-serif" font-weight="700" font-size="35" transform="matrix(0.994497 0 0 1.00694 2181.48 1291)">5</text></g></g></g></g></g></svg>